<mxfile host="app.diagrams.net" modified="2023-11-18T02:24:52.120Z" agent="Mozilla/5.0 (Windows NT 10.0; Win64; x64) AppleWebKit/537.36 (KHTML, like Gecko) Chrome/119.0.0.0 Safari/537.36" etag="8C3SOC0CBDKQ_U4xCtZU" version="22.1.3" type="device">
  <diagram id="C5RBs43oDa-KdzZeNtuy" name="Page-1">
    <mxGraphModel dx="1434" dy="782" grid="1" gridSize="10" guides="1" tooltips="1" connect="1" arrows="1" fold="1" page="1" pageScale="1" pageWidth="827" pageHeight="1169" math="0" shadow="0">
      <root>
        <mxCell id="WIyWlLk6GJQsqaUBKTNV-0" />
        <mxCell id="WIyWlLk6GJQsqaUBKTNV-1" parent="WIyWlLk6GJQsqaUBKTNV-0" />
        <mxCell id="zlAcd0EeseDrbNFn13Vi-3" value="" style="edgeStyle=orthogonalEdgeStyle;rounded=0;orthogonalLoop=1;jettySize=auto;html=1;" edge="1" parent="WIyWlLk6GJQsqaUBKTNV-1" source="zlAcd0EeseDrbNFn13Vi-1">
          <mxGeometry relative="1" as="geometry">
            <mxPoint x="414" y="150" as="targetPoint" />
          </mxGeometry>
        </mxCell>
        <mxCell id="zlAcd0EeseDrbNFn13Vi-1" value="START" style="strokeWidth=2;html=1;shape=mxgraph.flowchart.terminator;whiteSpace=wrap;" vertex="1" parent="WIyWlLk6GJQsqaUBKTNV-1">
          <mxGeometry x="364" y="40" width="100" height="60" as="geometry" />
        </mxCell>
        <mxCell id="zlAcd0EeseDrbNFn13Vi-6" value="" style="edgeStyle=orthogonalEdgeStyle;rounded=0;orthogonalLoop=1;jettySize=auto;html=1;" edge="1" parent="WIyWlLk6GJQsqaUBKTNV-1" source="zlAcd0EeseDrbNFn13Vi-4" target="zlAcd0EeseDrbNFn13Vi-5">
          <mxGeometry relative="1" as="geometry" />
        </mxCell>
        <mxCell id="zlAcd0EeseDrbNFn13Vi-4" value="declare variable: username, password" style="shape=hexagon;perimeter=hexagonPerimeter2;whiteSpace=wrap;html=1;fixedSize=1;" vertex="1" parent="WIyWlLk6GJQsqaUBKTNV-1">
          <mxGeometry x="291" y="150" width="246" height="100" as="geometry" />
        </mxCell>
        <mxCell id="zlAcd0EeseDrbNFn13Vi-8" value="" style="edgeStyle=orthogonalEdgeStyle;rounded=0;orthogonalLoop=1;jettySize=auto;html=1;" edge="1" parent="WIyWlLk6GJQsqaUBKTNV-1" source="zlAcd0EeseDrbNFn13Vi-5" target="zlAcd0EeseDrbNFn13Vi-7">
          <mxGeometry relative="1" as="geometry" />
        </mxCell>
        <mxCell id="zlAcd0EeseDrbNFn13Vi-21" style="edgeStyle=orthogonalEdgeStyle;rounded=0;orthogonalLoop=1;jettySize=auto;html=1;entryX=0.5;entryY=0;entryDx=0;entryDy=0;" edge="1" parent="WIyWlLk6GJQsqaUBKTNV-1" source="zlAcd0EeseDrbNFn13Vi-5" target="zlAcd0EeseDrbNFn13Vi-10">
          <mxGeometry relative="1" as="geometry" />
        </mxCell>
        <mxCell id="zlAcd0EeseDrbNFn13Vi-5" value="input username and password" style="shape=parallelogram;perimeter=parallelogramPerimeter;whiteSpace=wrap;html=1;fixedSize=1;" vertex="1" parent="WIyWlLk6GJQsqaUBKTNV-1">
          <mxGeometry x="307" y="300" width="214" height="60" as="geometry" />
        </mxCell>
        <mxCell id="zlAcd0EeseDrbNFn13Vi-13" value="" style="edgeStyle=orthogonalEdgeStyle;rounded=0;orthogonalLoop=1;jettySize=auto;html=1;" edge="1" parent="WIyWlLk6GJQsqaUBKTNV-1" source="zlAcd0EeseDrbNFn13Vi-7" target="zlAcd0EeseDrbNFn13Vi-12">
          <mxGeometry relative="1" as="geometry" />
        </mxCell>
        <mxCell id="zlAcd0EeseDrbNFn13Vi-14" value="true" style="edgeLabel;html=1;align=center;verticalAlign=middle;resizable=0;points=[];" vertex="1" connectable="0" parent="zlAcd0EeseDrbNFn13Vi-13">
          <mxGeometry x="-0.275" y="-4" relative="1" as="geometry">
            <mxPoint as="offset" />
          </mxGeometry>
        </mxCell>
        <mxCell id="zlAcd0EeseDrbNFn13Vi-7" value="username, password == username, password?" style="rhombus;whiteSpace=wrap;html=1;" vertex="1" parent="WIyWlLk6GJQsqaUBKTNV-1">
          <mxGeometry x="110" y="390" width="160" height="130" as="geometry" />
        </mxCell>
        <mxCell id="zlAcd0EeseDrbNFn13Vi-16" value="" style="edgeStyle=orthogonalEdgeStyle;rounded=0;orthogonalLoop=1;jettySize=auto;html=1;" edge="1" parent="WIyWlLk6GJQsqaUBKTNV-1" source="zlAcd0EeseDrbNFn13Vi-10" target="zlAcd0EeseDrbNFn13Vi-15">
          <mxGeometry relative="1" as="geometry" />
        </mxCell>
        <mxCell id="zlAcd0EeseDrbNFn13Vi-10" value="username, password == username, password?" style="rhombus;whiteSpace=wrap;html=1;" vertex="1" parent="WIyWlLk6GJQsqaUBKTNV-1">
          <mxGeometry x="334" y="440" width="160" height="130" as="geometry" />
        </mxCell>
        <mxCell id="zlAcd0EeseDrbNFn13Vi-25" value="" style="edgeStyle=orthogonalEdgeStyle;rounded=0;orthogonalLoop=1;jettySize=auto;html=1;" edge="1" parent="WIyWlLk6GJQsqaUBKTNV-1" source="zlAcd0EeseDrbNFn13Vi-12" target="zlAcd0EeseDrbNFn13Vi-24">
          <mxGeometry relative="1" as="geometry" />
        </mxCell>
        <mxCell id="zlAcd0EeseDrbNFn13Vi-12" value="proceeds to dashboard" style="shape=parallelogram;perimeter=parallelogramPerimeter;whiteSpace=wrap;html=1;fixedSize=1;" vertex="1" parent="WIyWlLk6GJQsqaUBKTNV-1">
          <mxGeometry x="90" y="600" width="200" height="60" as="geometry" />
        </mxCell>
        <mxCell id="zlAcd0EeseDrbNFn13Vi-18" value="" style="edgeStyle=orthogonalEdgeStyle;rounded=0;orthogonalLoop=1;jettySize=auto;html=1;" edge="1" parent="WIyWlLk6GJQsqaUBKTNV-1" source="zlAcd0EeseDrbNFn13Vi-15" target="zlAcd0EeseDrbNFn13Vi-17">
          <mxGeometry relative="1" as="geometry" />
        </mxCell>
        <mxCell id="zlAcd0EeseDrbNFn13Vi-15" value="&quot;the username or password incorrect&quot;" style="shape=parallelogram;perimeter=parallelogramPerimeter;whiteSpace=wrap;html=1;fixedSize=1;" vertex="1" parent="WIyWlLk6GJQsqaUBKTNV-1">
          <mxGeometry x="324" y="630" width="180" height="60" as="geometry" />
        </mxCell>
        <mxCell id="zlAcd0EeseDrbNFn13Vi-17" value="A" style="ellipse;whiteSpace=wrap;html=1;" vertex="1" parent="WIyWlLk6GJQsqaUBKTNV-1">
          <mxGeometry x="570" y="620" width="80" height="80" as="geometry" />
        </mxCell>
        <mxCell id="zlAcd0EeseDrbNFn13Vi-22" style="edgeStyle=orthogonalEdgeStyle;rounded=0;orthogonalLoop=1;jettySize=auto;html=1;entryX=1;entryY=0.5;entryDx=0;entryDy=0;" edge="1" parent="WIyWlLk6GJQsqaUBKTNV-1" source="zlAcd0EeseDrbNFn13Vi-19" target="zlAcd0EeseDrbNFn13Vi-5">
          <mxGeometry relative="1" as="geometry" />
        </mxCell>
        <mxCell id="zlAcd0EeseDrbNFn13Vi-19" value="A" style="ellipse;whiteSpace=wrap;html=1;" vertex="1" parent="WIyWlLk6GJQsqaUBKTNV-1">
          <mxGeometry x="600" y="290" width="80" height="80" as="geometry" />
        </mxCell>
        <mxCell id="zlAcd0EeseDrbNFn13Vi-23" value="START" style="strokeWidth=2;html=1;shape=mxgraph.flowchart.terminator;whiteSpace=wrap;" vertex="1" parent="WIyWlLk6GJQsqaUBKTNV-1">
          <mxGeometry x="364" y="40" width="100" height="60" as="geometry" />
        </mxCell>
        <mxCell id="zlAcd0EeseDrbNFn13Vi-24" value="END" style="strokeWidth=2;html=1;shape=mxgraph.flowchart.terminator;whiteSpace=wrap;" vertex="1" parent="WIyWlLk6GJQsqaUBKTNV-1">
          <mxGeometry x="140" y="700" width="100" height="60" as="geometry" />
        </mxCell>
      </root>
    </mxGraphModel>
  </diagram>
</mxfile>
